<svg t="1606878905052" class="icon" viewBox="0 0 1024 1024" version="1.1" xmlns="http://www.w3.org/2000/svg" p-id="1643" width="200" height="200"><path d="M953.493 823.467l-25.6-212.48c-0.853-7.04-9.493-10.027-14.506-5.014l-63.254 63.36-289.386-289.28c-6.72-6.613-17.494-6.613-24.107 0l-108.587 108.48-295.146-295.146c-3.307-3.307-8.747-3.307-12.054 0l-48 48.213c-3.306 3.307-3.306 8.747 0 12.053L416 597.013c6.613 6.72 17.493 6.72 24.107 0l108.586-108.48L789.867 729.6l-63.254 63.253c-5.013 5.014-2.026 13.654 5.014 14.507l212.48 25.6c5.44 0.747 10.133-3.947 9.386-9.493z" p-id="1644" fill="#1afa29"></path></svg>
